# xmcd
#
# Track frame offsets:
#	150
#	12817
#	25754
#	35938
#	54253
#	63763
#	78918
#	90158
#	106755
#	118701
#
# Disc length: 1729 seconds
#
# Revision: 0
# Processed by: cddbd v1.5.2PL0 Copyright (c) Steve Scherf et al.
# Submitted via: dBpowerAMP V4.0
#
DISCID=6806bf0a
DTITLE=Diger Davis and Tombstone - Peeler Switch
DYEAR=2006
DGENRE=Bluegrass
TTITLE0=Get Up John
TTITLE1=Wild and Wicked World 
TTITLE2=New York City
TTITLE3=Dream of a Miner's Child 
TTITLE4=Home Far Away
TTITLE5=Sweet Baby Girl 
TTITLE6=Peeler-Switch 
TTITLE7=Saved by Grace 
TTITLE8=T for Texas
TTITLE9=Let's Part the Best of Friends 
EXTD=
EXTT0=
EXTT1=
EXTT2=
EXTT3=
EXTT4=
EXTT5=
EXTT6=
EXTT7=
EXTT8=
EXTT9=
PLAYORDER=
